{
 "cells": [
  {
   "cell_type": "markdown",
   "id": "0d6de257",
   "metadata": {},
   "source": [
    "## pip install midi-clip\n",
    "\n",
    "https://github.com/kyaryunha/midi-clip"
   ]
  },
  {
   "cell_type": "code",
   "execution_count": null,
   "id": "3b43589b",
   "metadata": {},
   "outputs": [],
   "source": []
  },
  {
   "cell_type": "code",
   "execution_count": 1,
   "id": "de38dec7",
   "metadata": {},
   "outputs": [],
   "source": [
    "import mido\n",
    "import midi_clip"
   ]
  },
  {
   "cell_type": "code",
   "execution_count": 4,
   "id": "1371e7e9",
   "metadata": {},
   "outputs": [
    {
     "data": {
      "text/plain": [
       "['__builtins__',\n",
       " '__cached__',\n",
       " '__doc__',\n",
       " '__file__',\n",
       " '__loader__',\n",
       " '__name__',\n",
       " '__package__',\n",
       " '__path__',\n",
       " '__spec__',\n",
       " 'midi_clip',\n",
       " 'midi_duration']"
      ]
     },
     "execution_count": 4,
     "metadata": {},
     "output_type": "execute_result"
    }
   ],
   "source": [
    "dir(midi_clip)"
   ]
  },
  {
   "cell_type": "code",
   "execution_count": 6,
   "id": "c32817fb",
   "metadata": {},
   "outputs": [
    {
     "data": {
      "text/plain": [
       "'1.2.10'"
      ]
     },
     "execution_count": 6,
     "metadata": {},
     "output_type": "execute_result"
    }
   ],
   "source": [
    "mido.__version__"
   ]
  },
  {
   "cell_type": "code",
   "execution_count": 5,
   "id": "1c584b1a",
   "metadata": {},
   "outputs": [
    {
     "data": {
      "text/plain": [
       "['Backend',\n",
       " 'KeySignatureError',\n",
       " 'MAX_PITCHWHEEL',\n",
       " 'MAX_SONGPOS',\n",
       " 'MIN_PITCHWHEEL',\n",
       " 'MIN_SONGPOS',\n",
       " 'Message',\n",
       " 'MetaMessage',\n",
       " 'MidiFile',\n",
       " 'MidiTrack',\n",
       " 'Parser',\n",
       " 'UnknownMetaMessage',\n",
       " '__about__',\n",
       " '__all__',\n",
       " '__author__',\n",
       " '__author_email__',\n",
       " '__builtins__',\n",
       " '__cached__',\n",
       " '__doc__',\n",
       " '__file__',\n",
       " '__license__',\n",
       " '__loader__',\n",
       " '__name__',\n",
       " '__package__',\n",
       " '__path__',\n",
       " '__spec__',\n",
       " '__url__',\n",
       " '__version__',\n",
       " 'backend',\n",
       " 'backends',\n",
       " 'bpm2tempo',\n",
       " 'format_as_string',\n",
       " 'get_input_names',\n",
       " 'get_ioport_names',\n",
       " 'get_output_names',\n",
       " 'merge_tracks',\n",
       " 'messages',\n",
       " 'midifiles',\n",
       " 'open_input',\n",
       " 'open_ioport',\n",
       " 'open_output',\n",
       " 'parse',\n",
       " 'parse_all',\n",
       " 'parse_string',\n",
       " 'parse_string_stream',\n",
       " 'parser',\n",
       " 'ports',\n",
       " 'py2',\n",
       " 'read_syx_file',\n",
       " 'second2tick',\n",
       " 'set_backend',\n",
       " 'sockets',\n",
       " 'syx',\n",
       " 'tempo2bpm',\n",
       " 'tick2second',\n",
       " 'tokenizer',\n",
       " 'version',\n",
       " 'version_info',\n",
       " 'write_syx_file']"
      ]
     },
     "execution_count": 5,
     "metadata": {},
     "output_type": "execute_result"
    }
   ],
   "source": [
    "dir(mido)"
   ]
  },
  {
   "cell_type": "code",
   "execution_count": null,
   "id": "ac380566",
   "metadata": {},
   "outputs": [],
   "source": [
    "midi-clip/example/"
   ]
  },
  {
   "cell_type": "code",
   "execution_count": 9,
   "id": "6788fd42",
   "metadata": {},
   "outputs": [],
   "source": [
    "# load midi use mido\n",
    "mid = mido.MidiFile('./다시 만나줘-업타운.mid')"
   ]
  },
  {
   "cell_type": "code",
   "execution_count": 10,
   "id": "96eb84af",
   "metadata": {},
   "outputs": [
    {
     "name": "stdout",
     "output_type": "stream",
     "text": [
      "MidiFile(type=1, ticks_per_beat=120, tracks=[\n",
      "  MidiTrack([\n",
      "    MetaMessage('track_name', name='´Ù½Ã ¸¸³ªÁà', time=0),\n",
      "    MetaMessage('track_name', name='¾÷ Å¸¿î', time=0),\n",
      "    MetaMessage('set_tempo', tempo=545455, time=0),\n",
      "    MetaMessage('end_of_track', time=0)]),\n",
      "  MidiTrack([\n",
      "    MetaMessage('track_name', name='BASS', time=0),\n",
      "    Message('control_change', channel=1, control=7, value=110, time=0),\n",
      "    Message('control_change', channel=1, control=10, value=64, time=0),\n",
      "    Message('control_change', channel=1, control=91, value=0, time=0),\n",
      "    Message('control_change', channel=1, control=93, value=0, time=0),\n",
      "    Message('control_change', channel=1, control=100, value=0, time=0),\n",
      "    Message('control_change', channel=1, control=101, value=0, time=0),\n",
      "    Message('control_change', channel=1, control=6, value=12, time=0),\n",
      "    Message('note_on', channel=1, note=33, velocity=105, time=0),\n",
      "    Message('note_on', channel=1, note=33, velocity=105, time=880),\n",
      "    Message('note_on', channel=1, note=33, velocity=0, time=108),\n",
      "    Message('note_on', channel=1, note=35, velocity=103, time=12),\n",
      "    Message('note_on', channel=1, note=35, velocity=0, time=55),\n",
      "    Message('note_on', channel=1, note=38, velocity=103, time=5),\n",
      "    Message('pitchwheel', channel=1, pitch=1365, time=91),\n",
      "    Message('pitchwheel', channel=1, pitch=888, time=78),\n",
      "    Message('pitchwheel', channel=1, pitch=364, time=4),\n",
      "    Message('pitchwheel', channel=1, pitch=-30, time=3),\n",
      "    Message('pitchwheel', channel=1, pitch=-654, time=4),\n",
      "    Message('pitchwheel', channel=1, pitch=-1078, time=3),\n",
      "    Message('pitchwheel', channel=1, pitch=-1602, time=4),\n",
      "    Message('pitchwheel', channel=1, pitch=-1955, time=3),\n",
      "    Message('pitchwheel', channel=1, pitch=-2378, time=4),\n",
      "    Message('pitchwheel', channel=1, pitch=-2802, time=3),\n",
      "    Message('note_on', channel=1, note=38, velocity=0, time=4),\n",
      "    Message('pitchwheel', channel=1, pitch=-3496, time=0),\n",
      "    Message('pitchwheel', channel=1, pitch=-3861, time=4),\n",
      "    Message('pitchwheel', channel=1, pitch=-4738, time=3),\n",
      "    Message('pitchwheel', channel=1, pitch=0, time=31),\n",
      "    Message('note_on', channel=1, note=40, velocity=107, time=1),\n",
      "    Message('pitchwheel', channel=1, pitch=-212, time=53),\n",
      "    Message('pitchwheel', channel=1, pitch=-636, time=4),\n",
      "    Message('pitchwheel', channel=1, pitch=-1130, time=3),\n",
      "    Message('pitchwheel', channel=1, pitch=-1554, time=4),\n",
      "    Message('pitchwheel', channel=1, pitch=-1978, time=3),\n",
      "    Message('pitchwheel', channel=1, pitch=-2402, time=4),\n",
      "    Message('pitchwheel', channel=1, pitch=-2755, time=3),\n",
      "    Message('pitchwheel', channel=1, pitch=-3178, time=4),\n",
      "    Message('pitchwheel', channel=1, pitch=-3602, time=3),\n",
      "    Message('pitchwheel', channel=1, pitch=-4096, time=4),\n",
      "    Message('pitchwheel', channel=1, pitch=-4661, time=4),\n",
      "    Message('pitchwheel', channel=1, pitch=-5438, time=3),\n",
      "    Message('note_on', channel=1, note=40, velocity=0, time=4),\n",
      "    Message('pitchwheel', channel=1, pitch=0, time=20),\n",
      "    Message('note_on', channel=1, note=38, velocity=100, time=64),\n",
      "    Message('note_on', channel=1, note=38, velocity=0, time=19),\n",
      "    Message('note_on', channel=1, note=40, velocity=107, time=41),\n",
      "    Message('note_on', channel=1, note=40, velocity=0, time=22),\n",
      "    Message('note_on', channel=1, note=38, velocity=101, time=8),\n",
      "    Message('note_on', channel=1, note=38, velocity=0, time=23),\n",
      "    Message('note_on', channel=1, note=40, velocity=107, time=37),\n",
      "    Message('note_on', channel=1, note=40, velocity=0, time=31),\n",
      "    Message('note_on', channel=1, note=52, velocity=107, time=89),\n",
      "    Message('note_on', channel=1, note=52, velocity=0, time=1),\n",
      "    Message('note_on', channel=1, note=40, velocity=107, time=29),\n",
      "    Message('note_on', channel=1, note=40, velocity=0, time=1),\n",
      "    Message('note_on', channel=1, note=35, velocity=107, time=59),\n",
      "    Message('note_on', channel=1, note=35, velocity=0, time=13),\n",
      "    Message('note_on', channel=1, note=35, velocity=97, time=17),\n",
      "    Message('note_on', channel=1, note=35, velocity=0, time=15),\n",
      "    Message('note_on', channel=1, note=35, velocity=100, time=15),\n",
      "    Message('note_on', channel=1, note=35, velocity=0, time=22),\n",
      "    Message('note_on', channel=1, note=35, velocity=107, time=38),\n",
      "    Message('note_on', channel=1, note=35, velocity=0, time=19),\n",
      "    Message('note_on', channel=1, note=38, velocity=101, time=41),\n",
      "    Message('note_on', channel=1, note=38, velocity=0, time=23),\n",
      "    Message('note_on', channel=1, note=40, velocity=105, time=7),\n",
      "    Message('note_on', channel=1, note=40, velocity=0, time=29),\n",
      "    Message('note_on', channel=1, note=40, velocity=111, time=31),\n",
      "    Message('note_on', channel=1, note=40, velocity=0, time=47),\n",
      "    Message('note_off', channel=1, note=33, velocity=64, time=42),\n",
      "    Message('note_off', channel=1, note=33, velocity=64, time=0),\n",
      "    Message('note_off', channel=1, note=33, velocity=64, time=0),\n",
      "    Message('note_off', channel=1, note=35, velocity=64, time=0),\n",
      "    Message('note_off', channel=1, note=35, velocity=64, time=0),\n",
      "    Message('note_off', channel=1, note=35, velocity=64, time=0),\n",
      "    Message('note_off', channel=1, note=35, velocity=64, time=0),\n",
      "    Message('note_off', channel=1, note=35, velocity=64, time=0),\n",
      "    Message('note_off', channel=1, note=35, velocity=64, time=0),\n",
      "    Message('note_off', channel=1, note=35, velocity=64, time=0),\n",
      "    Message('note_off', channel=1, note=35, velocity=64, time=0),\n",
      "    Message('note_off', channel=1, note=35, velocity=64, time=0),\n",
      "    Message('note_off', channel=1, note=35, velocity=64, time=0),\n",
      "    Message('note_off', channel=1, note=38, velocity=64, time=0),\n",
      "    Message('note_off', channel=1, note=38, velocity=64, time=0),\n",
      "    Message('note_off', channel=1, note=38, velocity=64, time=0),\n",
      "    Message('note_off', channel=1, note=38, velocity=64, time=0),\n",
      "    Message('note_off', channel=1, note=38, velocity=64, time=0),\n",
      "    Message('note_off', channel=1, note=38, velocity=64, time=0),\n",
      "    Message('note_off', channel=1, note=38, velocity=64, time=0),\n",
      "    Message('note_off', channel=1, note=38, velocity=64, time=0),\n",
      "    Message('note_off', channel=1, note=40, velocity=64, time=0),\n",
      "    Message('note_off', channel=1, note=40, velocity=64, time=0),\n",
      "    Message('note_off', channel=1, note=40, velocity=64, time=0),\n",
      "    Message('note_off', channel=1, note=40, velocity=64, time=0),\n",
      "    Message('note_off', channel=1, note=40, velocity=64, time=0),\n",
      "    Message('note_off', channel=1, note=40, velocity=64, time=0),\n",
      "    Message('note_off', channel=1, note=40, velocity=64, time=0),\n",
      "    Message('note_off', channel=1, note=40, velocity=64, time=0),\n",
      "    Message('note_off', channel=1, note=40, velocity=64, time=0),\n",
      "    Message('note_off', channel=1, note=40, velocity=64, time=0),\n",
      "    Message('note_off', channel=1, note=40, velocity=64, time=0),\n",
      "    Message('note_off', channel=1, note=40, velocity=64, time=0),\n",
      "    Message('note_off', channel=1, note=52, velocity=64, time=0),\n",
      "    Message('note_off', channel=1, note=52, velocity=64, time=0),\n",
      "    MetaMessage('end_of_track', time=0)]),\n",
      "  MidiTrack([\n",
      "    MetaMessage('track_name', name='E PIANO', time=0),\n",
      "    Message('control_change', channel=3, control=7, value=90, time=0),\n",
      "    Message('control_change', channel=3, control=10, value=48, time=0),\n",
      "    Message('control_change', channel=3, control=91, value=30, time=0),\n",
      "    Message('control_change', channel=3, control=93, value=30, time=0),\n",
      "    Message('control_change', channel=3, control=100, value=0, time=0),\n",
      "    Message('control_change', channel=3, control=101, value=0, time=0),\n",
      "    Message('control_change', channel=3, control=6, value=12, time=0),\n",
      "    Message('note_on', channel=3, note=66, velocity=105, time=0),\n",
      "    Message('note_on', channel=3, note=67, velocity=103, time=0),\n",
      "    Message('note_on', channel=3, note=71, velocity=102, time=0),\n",
      "    Message('note_on', channel=3, note=71, velocity=0, time=0),\n",
      "    Message('note_on', channel=3, note=71, velocity=0, time=189),\n",
      "    Message('note_on', channel=3, note=66, velocity=0, time=10),\n",
      "    Message('note_on', channel=3, note=67, velocity=0, time=2),\n",
      "    Message('note_on', channel=3, note=66, velocity=100, time=19),\n",
      "    Message('note_on', channel=3, note=62, velocity=88, time=0),\n",
      "    Message('note_on', channel=3, note=69, velocity=79, time=0),\n",
      "    Message('note_on', channel=3, note=69, velocity=0, time=42),\n",
      "    Message('note_on', channel=3, note=62, velocity=0, time=0),\n",
      "    Message('note_on', channel=3, note=66, velocity=0, time=4),\n",
      "    Message('note_on', channel=3, note=67, velocity=100, time=14),\n",
      "    Message('note_on', channel=3, note=64, velocity=100, time=0),\n",
      "    Message('note_on', channel=3, note=71, velocity=92, time=0),\n",
      "    Message('note_on', channel=3, note=71, velocity=0, time=995),\n",
      "    Message('note_on', channel=3, note=67, velocity=0, time=4),\n",
      "    Message('note_on', channel=3, note=64, velocity=0, time=1),\n",
      "    Message('note_on', channel=3, note=64, velocity=93, time=20),\n",
      "    Message('note_on', channel=3, note=66, velocity=95, time=0),\n",
      "    Message('note_on', channel=3, note=67, velocity=93, time=0),\n",
      "    Message('note_on', channel=3, note=71, velocity=92, time=0),\n",
      "    Message('note_on', channel=3, note=71, velocity=0, time=809),\n",
      "    Message('note_on', channel=3, note=64, velocity=0, time=6),\n",
      "    Message('note_on', channel=3, note=66, velocity=0, time=4),\n",
      "    Message('note_on', channel=3, note=67, velocity=0, time=2),\n",
      "    Message('note_on', channel=3, note=66, velocity=100, time=19),\n",
      "    Message('note_on', channel=3, note=62, velocity=88, time=0),\n",
      "    Message('note_on', channel=3, note=69, velocity=79, time=0),\n",
      "    Message('note_on', channel=3, note=69, velocity=0, time=42),\n",
      "    Message('note_on', channel=3, note=62, velocity=0, time=0),\n",
      "    Message('note_on', channel=3, note=66, velocity=0, time=4),\n",
      "    Message('note_off', channel=3, note=66, velocity=64, time=13),\n",
      "    Message('note_off', channel=3, note=66, velocity=64, time=0),\n",
      "    Message('note_off', channel=3, note=66, velocity=64, time=0),\n",
      "    Message('note_off', channel=3, note=66, velocity=64, time=0),\n",
      "    Message('note_off', channel=3, note=66, velocity=64, time=0),\n",
      "    Message('note_off', channel=3, note=66, velocity=64, time=0),\n",
      "    Message('note_off', channel=3, note=66, velocity=64, time=0),\n",
      "    Message('note_off', channel=3, note=66, velocity=64, time=0),\n",
      "    Message('note_off', channel=3, note=67, velocity=64, time=0),\n",
      "    Message('note_off', channel=3, note=67, velocity=64, time=0),\n",
      "    Message('note_off', channel=3, note=67, velocity=64, time=0),\n",
      "    Message('note_off', channel=3, note=67, velocity=64, time=0),\n",
      "    Message('note_off', channel=3, note=67, velocity=64, time=0),\n",
      "    Message('note_off', channel=3, note=67, velocity=64, time=0),\n",
      "    Message('note_off', channel=3, note=71, velocity=64, time=0),\n",
      "    Message('note_off', channel=3, note=71, velocity=64, time=0),\n",
      "    Message('note_off', channel=3, note=71, velocity=64, time=0),\n",
      "    Message('note_off', channel=3, note=71, velocity=64, time=0),\n",
      "    Message('note_off', channel=3, note=71, velocity=64, time=0),\n",
      "    Message('note_off', channel=3, note=71, velocity=64, time=0),\n",
      "    Message('note_off', channel=3, note=71, velocity=64, time=0),\n",
      "    Message('note_off', channel=3, note=62, velocity=64, time=0),\n",
      "    Message('note_off', channel=3, note=62, velocity=64, time=0),\n",
      "    Message('note_off', channel=3, note=62, velocity=64, time=0),\n",
      "    Message('note_off', channel=3, note=62, velocity=64, time=0),\n",
      "    Message('note_off', channel=3, note=69, velocity=64, time=0),\n",
      "    Message('note_off', channel=3, note=69, velocity=64, time=0),\n",
      "    Message('note_off', channel=3, note=69, velocity=64, time=0),\n",
      "    Message('note_off', channel=3, note=69, velocity=64, time=0),\n",
      "    Message('note_off', channel=3, note=64, velocity=64, time=0),\n",
      "    Message('note_off', channel=3, note=64, velocity=64, time=0),\n",
      "    Message('note_off', channel=3, note=64, velocity=64, time=0),\n",
      "    Message('note_off', channel=3, note=64, velocity=64, time=0),\n",
      "    MetaMessage('end_of_track', time=0)]),\n",
      "  MidiTrack([\n",
      "    MetaMessage('track_name', name='WAVE', time=0),\n",
      "    Message('control_change', channel=4, control=7, value=90, time=0),\n",
      "    Message('control_change', channel=4, control=10, value=20, time=0),\n",
      "    Message('control_change', channel=4, control=91, value=60, time=0),\n",
      "    Message('control_change', channel=4, control=93, value=0, time=0),\n",
      "    Message('control_change', channel=4, control=100, value=0, time=0),\n",
      "    Message('control_change', channel=4, control=101, value=0, time=0),\n",
      "    Message('control_change', channel=4, control=6, value=12, time=0),\n",
      "    Message('note_on', channel=4, note=71, velocity=79, time=0),\n",
      "    Message('note_on', channel=4, note=71, velocity=0, time=0),\n",
      "    Message('note_on', channel=4, note=71, velocity=83, time=0),\n",
      "    Message('note_on', channel=4, note=71, velocity=0, time=0),\n",
      "    Message('note_on', channel=4, note=76, velocity=76, time=0),\n",
      "    Message('note_on', channel=4, note=76, velocity=0, time=0),\n",
      "    Message('note_on', channel=4, note=76, velocity=76, time=0),\n",
      "    Message('note_on', channel=4, note=76, velocity=0, time=0),\n",
      "    Message('note_on', channel=4, note=76, velocity=0, time=159),\n",
      "    Message('note_on', channel=4, note=71, velocity=82, time=1),\n",
      "    Message('note_on', channel=4, note=71, velocity=0, time=239),\n",
      "    Message('note_on', channel=4, note=76, velocity=79, time=1),\n",
      "    Message('note_on', channel=4, note=76, velocity=0, time=239),\n",
      "    Message('note_on', channel=4, note=71, velocity=79, time=1),\n",
      "    Message('note_on', channel=4, note=71, velocity=0, time=238),\n",
      "    Message('note_on', channel=4, note=76, velocity=67, time=2),\n",
      "    Message('note_on', channel=4, note=71, velocity=59, time=30),\n",
      "    Message('note_on', channel=4, note=76, velocity=0, time=5),\n",
      "    Message('note_on', channel=4, note=71, velocity=0, time=84),\n",
      "    Message('note_on', channel=4, note=76, velocity=51, time=1),\n",
      "    Message('note_on', channel=4, note=76, velocity=0, time=29),\n",
      "    Message('note_on', channel=4, note=71, velocity=43, time=1),\n",
      "    Message('note_on', channel=4, note=71, velocity=0, time=59),\n",
      "    Message('note_on', channel=4, note=76, velocity=43, time=1),\n",
      "    Message('note_on', channel=4, note=76, velocity=0, time=119),\n",
      "    Message('note_on', channel=4, note=71, velocity=45, time=1),\n",
      "    Message('note_on', channel=4, note=71, velocity=0, time=89),\n",
      "    Message('note_on', channel=4, note=71, velocity=79, time=1),\n",
      "    Message('note_on', channel=4, note=71, velocity=0, time=59),\n",
      "    Message('note_on', channel=4, note=76, velocity=76, time=1),\n",
      "    Message('note_on', channel=4, note=76, velocity=0, time=239),\n",
      "    Message('note_on', channel=4, note=71, velocity=83, time=1),\n",
      "    Message('note_on', channel=4, note=71, velocity=0, time=239),\n",
      "    Message('note_on', channel=4, note=76, velocity=76, time=1),\n",
      "    Message('note_on', channel=4, note=76, velocity=0, time=239),\n",
      "    Message('note_on', channel=4, note=71, velocity=82, time=1),\n",
      "    Message('note_off', channel=4, note=71, velocity=64, time=119),\n",
      "    Message('note_off', channel=4, note=71, velocity=64, time=0),\n",
      "    Message('note_off', channel=4, note=71, velocity=64, time=0),\n",
      "    Message('note_off', channel=4, note=71, velocity=64, time=0),\n",
      "    Message('note_off', channel=4, note=71, velocity=64, time=0),\n",
      "    Message('note_off', channel=4, note=71, velocity=64, time=0),\n",
      "    Message('note_off', channel=4, note=71, velocity=64, time=0),\n",
      "    Message('note_off', channel=4, note=71, velocity=64, time=0),\n",
      "    Message('note_off', channel=4, note=71, velocity=64, time=0),\n",
      "    Message('note_off', channel=4, note=71, velocity=64, time=0),\n",
      "    Message('note_off', channel=4, note=71, velocity=64, time=0),\n",
      "    Message('note_off', channel=4, note=71, velocity=64, time=0),\n",
      "    Message('note_off', channel=4, note=71, velocity=64, time=0),\n",
      "    Message('note_off', channel=4, note=71, velocity=64, time=0),\n",
      "    Message('note_off', channel=4, note=71, velocity=64, time=0),\n",
      "    Message('note_off', channel=4, note=71, velocity=64, time=0),\n",
      "    Message('note_off', channel=4, note=71, velocity=64, time=0),\n",
      "    Message('note_off', channel=4, note=71, velocity=64, time=0),\n",
      "    Message('note_off', channel=4, note=71, velocity=64, time=0),\n",
      "    Message('note_off', channel=4, note=76, velocity=64, time=0),\n",
      "    Message('note_off', channel=4, note=76, velocity=64, time=0),\n",
      "    Message('note_off', channel=4, note=76, velocity=64, time=0),\n",
      "    Message('note_off', channel=4, note=76, velocity=64, time=0),\n",
      "    Message('note_off', channel=4, note=76, velocity=64, time=0),\n",
      "    Message('note_off', channel=4, note=76, velocity=64, time=0),\n",
      "    Message('note_off', channel=4, note=76, velocity=64, time=0),\n",
      "    Message('note_off', channel=4, note=76, velocity=64, time=0),\n",
      "    Message('note_off', channel=4, note=76, velocity=64, time=0),\n",
      "    Message('note_off', channel=4, note=76, velocity=64, time=0),\n",
      "    Message('note_off', channel=4, note=76, velocity=64, time=0),\n",
      "    Message('note_off', channel=4, note=76, velocity=64, time=0),\n",
      "    Message('note_off', channel=4, note=76, velocity=64, time=0),\n",
      "    Message('note_off', channel=4, note=76, velocity=64, time=0),\n",
      "    Message('note_off', channel=4, note=76, velocity=64, time=0),\n",
      "    Message('note_off', channel=4, note=76, velocity=64, time=0),\n",
      "    Message('note_off', channel=4, note=76, velocity=64, time=0),\n",
      "    MetaMessage('end_of_track', time=0)]),\n",
      "  MidiTrack([\n",
      "    MetaMessage('track_name', name='GUITAR', time=0),\n",
      "    Message('control_change', channel=5, control=7, value=80, time=0),\n",
      "    Message('control_change', channel=5, control=10, value=115, time=0),\n",
      "    Message('control_change', channel=5, control=91, value=60, time=0),\n",
      "    Message('control_change', channel=5, control=93, value=30, time=0),\n",
      "    Message('control_change', channel=5, control=100, value=0, time=0),\n",
      "    Message('control_change', channel=5, control=101, value=0, time=0),\n",
      "    Message('control_change', channel=5, control=6, value=12, time=0),\n",
      "    Message('note_on', channel=5, note=64, velocity=81, time=0),\n",
      "    Message('note_on', channel=5, note=64, velocity=81, time=340),\n",
      "    Message('note_on', channel=5, note=67, velocity=88, time=0),\n",
      "    Message('note_on', channel=5, note=71, velocity=81, time=0),\n",
      "    Message('note_on', channel=5, note=67, velocity=0, time=939),\n",
      "    Message('note_on', channel=5, note=64, velocity=0, time=0),\n",
      "    Message('note_on', channel=5, note=71, velocity=0, time=3),\n",
      "    Message('note_off', channel=5, note=64, velocity=64, time=917),\n",
      "    Message('note_off', channel=5, note=64, velocity=64, time=0),\n",
      "    Message('note_off', channel=5, note=64, velocity=64, time=0),\n",
      "    Message('note_off', channel=5, note=67, velocity=64, time=0),\n",
      "    Message('note_off', channel=5, note=67, velocity=64, time=0),\n",
      "    Message('note_off', channel=5, note=71, velocity=64, time=0),\n",
      "    Message('note_off', channel=5, note=71, velocity=64, time=0),\n",
      "    MetaMessage('end_of_track', time=0)]),\n",
      "  MidiTrack([\n",
      "    MetaMessage('track_name', name='HARPSICBHORD', time=0),\n",
      "    Message('control_change', channel=6, control=7, value=90, time=0),\n",
      "    Message('control_change', channel=6, control=10, value=78, time=0),\n",
      "    Message('control_change', channel=6, control=91, value=20, time=0),\n",
      "    Message('control_change', channel=6, control=93, value=40, time=0),\n",
      "    Message('control_change', channel=6, control=100, value=0, time=0),\n",
      "    Message('control_change', channel=6, control=101, value=0, time=0),\n",
      "    Message('control_change', channel=6, control=6, value=12, time=0),\n",
      "    Message('note_on', channel=6, note=38, velocity=115, time=0),\n",
      "    Message('note_on', channel=6, note=38, velocity=115, time=1060),\n",
      "    Message('pitchwheel', channel=6, pitch=1365, time=91),\n",
      "    Message('pitchwheel', channel=6, pitch=888, time=78),\n",
      "    Message('pitchwheel', channel=6, pitch=364, time=4),\n",
      "    Message('pitchwheel', channel=6, pitch=-30, time=3),\n",
      "    Message('pitchwheel', channel=6, pitch=-654, time=4),\n",
      "    Message('pitchwheel', channel=6, pitch=-1078, time=3),\n",
      "    Message('pitchwheel', channel=6, pitch=-1602, time=4),\n",
      "    Message('pitchwheel', channel=6, pitch=-1955, time=3),\n",
      "    Message('pitchwheel', channel=6, pitch=-2378, time=4),\n",
      "    Message('pitchwheel', channel=6, pitch=-2802, time=3),\n",
      "    Message('note_on', channel=6, note=38, velocity=0, time=4),\n",
      "    Message('pitchwheel', channel=6, pitch=-3496, time=0),\n",
      "    Message('pitchwheel', channel=6, pitch=-3861, time=4),\n",
      "    Message('pitchwheel', channel=6, pitch=-4738, time=3),\n",
      "    Message('pitchwheel', channel=6, pitch=0, time=31),\n",
      "    Message('note_off', channel=6, note=38, velocity=64, time=900),\n",
      "    Message('note_off', channel=6, note=38, velocity=64, time=0),\n",
      "    Message('note_off', channel=6, note=38, velocity=64, time=0),\n",
      "    MetaMessage('end_of_track', time=0)]),\n",
      "  MidiTrack([\n",
      "    MetaMessage('track_name', name='DR', time=0),\n",
      "    Message('control_change', channel=9, control=7, value=115, time=0),\n",
      "    Message('control_change', channel=9, control=10, value=64, time=0),\n",
      "    Message('control_change', channel=9, control=91, value=60, time=0),\n",
      "    Message('control_change', channel=9, control=93, value=0, time=0),\n",
      "    Message('control_change', channel=9, control=100, value=0, time=0),\n",
      "    Message('control_change', channel=9, control=101, value=0, time=0),\n",
      "    Message('control_change', channel=9, control=6, value=12, time=0),\n",
      "    Message('note_on', channel=9, note=42, velocity=58, time=0),\n",
      "    Message('note_on', channel=9, note=42, velocity=0, time=0),\n",
      "    Message('note_on', channel=9, note=42, velocity=56, time=0),\n",
      "    Message('note_on', channel=9, note=42, velocity=0, time=0),\n",
      "    Message('note_on', channel=9, note=42, velocity=58, time=0),\n",
      "    Message('note_on', channel=9, note=42, velocity=0, time=0),\n",
      "    Message('note_on', channel=9, note=36, velocity=108, time=0),\n",
      "    Message('note_on', channel=9, note=36, velocity=0, time=0),\n",
      "    Message('note_on', channel=9, note=36, velocity=108, time=0),\n",
      "    Message('note_on', channel=9, note=36, velocity=108, time=100),\n",
      "    Message('note_on', channel=9, note=36, velocity=0, time=1),\n",
      "    Message('note_on', channel=9, note=36, velocity=108, time=479),\n",
      "    Message('note_on', channel=9, note=36, velocity=0, time=1),\n",
      "    Message('note_on', channel=9, note=36, velocity=108, time=479),\n",
      "    Message('note_on', channel=9, note=36, velocity=0, time=1),\n",
      "    Message('note_on', channel=9, note=35, velocity=110, time=239),\n",
      "    Message('note_on', channel=9, note=69, velocity=54, time=0),\n",
      "    Message('note_on', channel=9, note=42, velocity=76, time=0),\n",
      "    Message('note_on', channel=9, note=42, velocity=0, time=1),\n",
      "    Message('note_on', channel=9, note=35, velocity=0, time=0),\n",
      "    Message('note_on', channel=9, note=69, velocity=0, time=58),\n",
      "    Message('note_on', channel=9, note=69, velocity=72, time=1),\n",
      "    Message('note_on', channel=9, note=42, velocity=61, time=0),\n",
      "    Message('note_on', channel=9, note=42, velocity=0, time=1),\n",
      "    Message('note_on', channel=9, note=69, velocity=0, time=58),\n",
      "    Message('note_on', channel=9, note=69, velocity=54, time=1),\n",
      "    Message('note_on', channel=9, note=42, velocity=76, time=0),\n",
      "    Message('note_on', channel=9, note=28, velocity=105, time=0),\n",
      "    Message('note_on', channel=9, note=40, velocity=111, time=0),\n",
      "    Message('note_on', channel=9, note=42, velocity=0, time=1),\n",
      "    Message('note_on', channel=9, note=39, velocity=95, time=1),\n",
      "    Message('note_on', channel=9, note=69, velocity=0, time=37),\n",
      "    Message('note_on', channel=9, note=40, velocity=0, time=0),\n",
      "    Message('note_on', channel=9, note=28, velocity=0, time=0),\n",
      "    Message('note_on', channel=9, note=39, velocity=0, time=2),\n",
      "    Message('note_on', channel=9, note=35, velocity=99, time=19),\n",
      "    Message('note_on', channel=9, note=69, velocity=54, time=0),\n",
      "    Message('note_on', channel=9, note=42, velocity=61, time=0),\n",
      "    Message('note_on', channel=9, note=42, velocity=0, time=1),\n",
      "    Message('note_on', channel=9, note=35, velocity=0, time=0),\n",
      "    Message('note_on', channel=9, note=69, velocity=0, time=15),\n",
      "    Message('note_on', channel=9, note=69, velocity=63, time=14),\n",
      "    Message('note_on', channel=9, note=69, velocity=0, time=19),\n",
      "    Message('note_on', channel=9, note=35, velocity=110, time=11),\n",
      "    Message('note_on', channel=9, note=69, velocity=54, time=0),\n",
      "    Message('note_on', channel=9, note=42, velocity=76, time=0),\n",
      "    Message('note_on', channel=9, note=42, velocity=0, time=1),\n",
      "    Message('note_on', channel=9, note=35, velocity=0, time=0),\n",
      "    Message('note_on', channel=9, note=69, velocity=0, time=38),\n",
      "    Message('note_on', channel=9, note=35, velocity=110, time=21),\n",
      "    Message('note_on', channel=9, note=69, velocity=72, time=0),\n",
      "    Message('note_on', channel=9, note=42, velocity=61, time=0),\n",
      "    Message('note_on', channel=9, note=42, velocity=0, time=1),\n",
      "    Message('note_on', channel=9, note=35, velocity=0, time=0),\n",
      "    Message('note_on', channel=9, note=69, velocity=0, time=58),\n",
      "    Message('note_on', channel=9, note=69, velocity=54, time=1),\n",
      "    Message('note_on', channel=9, note=42, velocity=76, time=0),\n",
      "    Message('note_on', channel=9, note=28, velocity=105, time=0),\n",
      "    Message('note_on', channel=9, note=40, velocity=111, time=0),\n",
      "    Message('note_on', channel=9, note=42, velocity=0, time=1),\n",
      "    Message('note_on', channel=9, note=39, velocity=95, time=1),\n",
      "    Message('note_on', channel=9, note=40, velocity=0, time=33),\n",
      "    Message('note_on', channel=9, note=28, velocity=0, time=0),\n",
      "    Message('note_on', channel=9, note=39, velocity=0, time=2),\n",
      "    Message('note_on', channel=9, note=69, velocity=0, time=22),\n",
      "    Message('note_on', channel=9, note=69, velocity=72, time=1),\n",
      "    Message('note_on', channel=9, note=42, velocity=61, time=0),\n",
      "    Message('note_on', channel=9, note=42, velocity=0, time=1),\n",
      "    Message('note_on', channel=9, note=35, velocity=99, time=29),\n",
      "    Message('note_on', channel=9, note=35, velocity=0, time=1),\n",
      "    Message('note_on', channel=9, note=69, velocity=0, time=28),\n",
      "    Message('note_on', channel=9, note=35, velocity=110, time=1),\n",
      "    Message('note_on', channel=9, note=69, velocity=54, time=0),\n",
      "    Message('note_on', channel=9, note=42, velocity=76, time=0),\n",
      "    Message('note_on', channel=9, note=42, velocity=0, time=1),\n",
      "    Message('note_on', channel=9, note=35, velocity=0, time=0),\n",
      "    Message('note_on', channel=9, note=69, velocity=0, time=58),\n",
      "    Message('note_on', channel=9, note=35, velocity=110, time=1),\n",
      "    Message('note_on', channel=9, note=69, velocity=72, time=0),\n",
      "    Message('note_on', channel=9, note=42, velocity=61, time=0),\n",
      "    Message('note_on', channel=9, note=42, velocity=0, time=1),\n",
      "    Message('note_on', channel=9, note=35, velocity=0, time=0),\n",
      "    Message('note_on', channel=9, note=69, velocity=0, time=58),\n",
      "    Message('note_on', channel=9, note=69, velocity=54, time=1),\n",
      "    Message('note_on', channel=9, note=42, velocity=76, time=0),\n",
      "    Message('note_on', channel=9, note=28, velocity=105, time=0),\n",
      "    Message('note_on', channel=9, note=40, velocity=111, time=0),\n",
      "    Message('note_on', channel=9, note=42, velocity=0, time=1),\n",
      "    Message('note_on', channel=9, note=39, velocity=95, time=1),\n",
      "    Message('note_on', channel=9, note=40, velocity=0, time=24),\n",
      "    Message('note_on', channel=9, note=28, velocity=0, time=0),\n",
      "    Message('note_on', channel=9, note=39, velocity=0, time=2),\n",
      "    Message('note_on', channel=9, note=69, velocity=0, time=11),\n",
      "    Message('note_on', channel=9, note=35, velocity=99, time=21),\n",
      "    Message('note_on', channel=9, note=69, velocity=54, time=0),\n",
      "    Message('note_on', channel=9, note=42, velocity=61, time=0),\n",
      "    Message('note_on', channel=9, note=42, velocity=0, time=1),\n",
      "    Message('note_on', channel=9, note=35, velocity=0, time=0),\n",
      "    Message('note_on', channel=9, note=69, velocity=0, time=15),\n",
      "    Message('note_on', channel=9, note=69, velocity=63, time=14),\n",
      "    Message('note_on', channel=9, note=69, velocity=0, time=19),\n",
      "    Message('note_on', channel=9, note=35, velocity=110, time=11),\n",
      "    Message('note_on', channel=9, note=69, velocity=54, time=0),\n",
      "    Message('note_on', channel=9, note=42, velocity=76, time=0),\n",
      "    Message('note_on', channel=9, note=42, velocity=0, time=1),\n",
      "    Message('note_on', channel=9, note=35, velocity=0, time=0),\n",
      "    Message('note_on', channel=9, note=69, velocity=0, time=38),\n",
      "    Message('note_on', channel=9, note=69, velocity=72, time=21),\n",
      "    Message('note_on', channel=9, note=42, velocity=61, time=0),\n",
      "    Message('note_on', channel=9, note=42, velocity=0, time=1),\n",
      "    Message('note_on', channel=9, note=35, velocity=99, time=29),\n",
      "    Message('note_on', channel=9, note=35, velocity=0, time=1),\n",
      "    Message('note_on', channel=9, note=69, velocity=0, time=28),\n",
      "    Message('note_on', channel=9, note=69, velocity=54, time=1),\n",
      "    Message('note_on', channel=9, note=42, velocity=76, time=0),\n",
      "    Message('note_on', channel=9, note=28, velocity=105, time=0),\n",
      "    Message('note_on', channel=9, note=40, velocity=111, time=0),\n",
      "    Message('note_on', channel=9, note=42, velocity=0, time=1),\n",
      "    Message('note_on', channel=9, note=39, velocity=95, time=1),\n",
      "    Message('note_on', channel=9, note=40, velocity=0, time=20),\n",
      "    Message('note_on', channel=9, note=28, velocity=0, time=0),\n",
      "    Message('note_on', channel=9, note=39, velocity=0, time=2),\n",
      "    Message('note_on', channel=9, note=69, velocity=0, time=35),\n",
      "    Message('note_off', channel=9, note=42, velocity=64, time=0),\n",
      "    Message('note_off', channel=9, note=42, velocity=64, time=0),\n",
      "    Message('note_off', channel=9, note=42, velocity=64, time=0),\n",
      "    Message('note_off', channel=9, note=42, velocity=64, time=0),\n",
      "    Message('note_off', channel=9, note=42, velocity=64, time=0),\n",
      "    Message('note_off', channel=9, note=42, velocity=64, time=0),\n",
      "    Message('note_off', channel=9, note=42, velocity=64, time=0),\n",
      "    Message('note_off', channel=9, note=42, velocity=64, time=0),\n",
      "    Message('note_off', channel=9, note=42, velocity=64, time=0),\n",
      "    Message('note_off', channel=9, note=42, velocity=64, time=0),\n",
      "    Message('note_off', channel=9, note=42, velocity=64, time=0),\n",
      "    Message('note_off', channel=9, note=42, velocity=64, time=0),\n",
      "    Message('note_off', channel=9, note=42, velocity=64, time=0),\n",
      "    Message('note_off', channel=9, note=42, velocity=64, time=0),\n",
      "    Message('note_off', channel=9, note=42, velocity=64, time=0),\n",
      "    Message('note_off', channel=9, note=42, velocity=64, time=0),\n",
      "    Message('note_off', channel=9, note=42, velocity=64, time=0),\n",
      "    Message('note_off', channel=9, note=42, velocity=64, time=0),\n",
      "    Message('note_off', channel=9, note=42, velocity=64, time=0),\n",
      "    Message('note_off', channel=9, note=42, velocity=64, time=0),\n",
      "    Message('note_off', channel=9, note=42, velocity=64, time=0),\n",
      "    Message('note_off', channel=9, note=42, velocity=64, time=0),\n",
      "    Message('note_off', channel=9, note=42, velocity=64, time=0),\n",
      "    Message('note_off', channel=9, note=42, velocity=64, time=0),\n",
      "    Message('note_off', channel=9, note=42, velocity=64, time=0),\n",
      "    Message('note_off', channel=9, note=42, velocity=64, time=0),\n",
      "    Message('note_off', channel=9, note=42, velocity=64, time=0),\n",
      "    Message('note_off', channel=9, note=42, velocity=64, time=0),\n",
      "    Message('note_off', channel=9, note=42, velocity=64, time=0),\n",
      "    Message('note_off', channel=9, note=42, velocity=64, time=0),\n",
      "    Message('note_off', channel=9, note=42, velocity=64, time=0),\n",
      "    Message('note_off', channel=9, note=42, velocity=64, time=0),\n",
      "    Message('note_off', channel=9, note=42, velocity=64, time=0),\n",
      "    Message('note_off', channel=9, note=42, velocity=64, time=0),\n",
      "    Message('note_off', channel=9, note=42, velocity=64, time=0),\n",
      "    Message('note_off', channel=9, note=42, velocity=64, time=0),\n",
      "    Message('note_off', channel=9, note=36, velocity=64, time=0),\n",
      "    Message('note_off', channel=9, note=36, velocity=64, time=0),\n",
      "    Message('note_off', channel=9, note=36, velocity=64, time=0),\n",
      "    Message('note_off', channel=9, note=36, velocity=64, time=0),\n",
      "    Message('note_off', channel=9, note=36, velocity=64, time=0),\n",
      "    Message('note_off', channel=9, note=36, velocity=64, time=0),\n",
      "    Message('note_off', channel=9, note=36, velocity=64, time=0),\n",
      "    Message('note_off', channel=9, note=36, velocity=64, time=0),\n",
      "    Message('note_off', channel=9, note=36, velocity=64, time=0),\n",
      "    Message('note_off', channel=9, note=35, velocity=64, time=0),\n",
      "    Message('note_off', channel=9, note=35, velocity=64, time=0),\n",
      "    Message('note_off', channel=9, note=35, velocity=64, time=0),\n",
      "    Message('note_off', channel=9, note=35, velocity=64, time=0),\n",
      "    Message('note_off', channel=9, note=35, velocity=64, time=0),\n",
      "    Message('note_off', channel=9, note=35, velocity=64, time=0),\n",
      "    Message('note_off', channel=9, note=35, velocity=64, time=0),\n",
      "    Message('note_off', channel=9, note=35, velocity=64, time=0),\n",
      "    Message('note_off', channel=9, note=35, velocity=64, time=0),\n",
      "    Message('note_off', channel=9, note=35, velocity=64, time=0),\n",
      "    Message('note_off', channel=9, note=35, velocity=64, time=0),\n",
      "    Message('note_off', channel=9, note=35, velocity=64, time=0),\n",
      "    Message('note_off', channel=9, note=35, velocity=64, time=0),\n",
      "    Message('note_off', channel=9, note=35, velocity=64, time=0),\n",
      "    Message('note_off', channel=9, note=35, velocity=64, time=0),\n",
      "    Message('note_off', channel=9, note=35, velocity=64, time=0),\n",
      "    Message('note_off', channel=9, note=35, velocity=64, time=0),\n",
      "    Message('note_off', channel=9, note=35, velocity=64, time=0),\n",
      "    Message('note_off', channel=9, note=35, velocity=64, time=0),\n",
      "    Message('note_off', channel=9, note=35, velocity=64, time=0),\n",
      "    Message('note_off', channel=9, note=69, velocity=64, time=0),\n",
      "    Message('note_off', channel=9, note=69, velocity=64, time=0),\n",
      "    Message('note_off', channel=9, note=69, velocity=64, time=0),\n",
      "    Message('note_off', channel=9, note=69, velocity=64, time=0),\n",
      "    Message('note_off', channel=9, note=69, velocity=64, time=0),\n",
      "    Message('note_off', channel=9, note=69, velocity=64, time=0),\n",
      "    Message('note_off', channel=9, note=69, velocity=64, time=0),\n",
      "    Message('note_off', channel=9, note=69, velocity=64, time=0),\n",
      "    Message('note_off', channel=9, note=69, velocity=64, time=0),\n",
      "    Message('note_off', channel=9, note=69, velocity=64, time=0),\n",
      "    Message('note_off', channel=9, note=69, velocity=64, time=0),\n",
      "    Message('note_off', channel=9, note=69, velocity=64, time=0),\n",
      "    Message('note_off', channel=9, note=69, velocity=64, time=0),\n",
      "    Message('note_off', channel=9, note=69, velocity=64, time=0),\n",
      "    Message('note_off', channel=9, note=69, velocity=64, time=0),\n",
      "    Message('note_off', channel=9, note=69, velocity=64, time=0),\n",
      "    Message('note_off', channel=9, note=69, velocity=64, time=0),\n",
      "    Message('note_off', channel=9, note=69, velocity=64, time=0),\n",
      "    Message('note_off', channel=9, note=69, velocity=64, time=0),\n",
      "    Message('note_off', channel=9, note=69, velocity=64, time=0),\n",
      "    Message('note_off', channel=9, note=69, velocity=64, time=0),\n",
      "    Message('note_off', channel=9, note=69, velocity=64, time=0),\n",
      "    Message('note_off', channel=9, note=69, velocity=64, time=0),\n",
      "    Message('note_off', channel=9, note=69, velocity=64, time=0),\n",
      "    Message('note_off', channel=9, note=69, velocity=64, time=0),\n",
      "    Message('note_off', channel=9, note=69, velocity=64, time=0),\n",
      "    Message('note_off', channel=9, note=69, velocity=64, time=0),\n",
      "    Message('note_off', channel=9, note=69, velocity=64, time=0),\n",
      "    Message('note_off', channel=9, note=69, velocity=64, time=0),\n",
      "    Message('note_off', channel=9, note=69, velocity=64, time=0),\n",
      "    Message('note_off', channel=9, note=69, velocity=64, time=0),\n",
      "    Message('note_off', channel=9, note=69, velocity=64, time=0),\n",
      "    Message('note_off', channel=9, note=69, velocity=64, time=0),\n",
      "    Message('note_off', channel=9, note=69, velocity=64, time=0),\n",
      "    Message('note_off', channel=9, note=28, velocity=64, time=0),\n",
      "    Message('note_off', channel=9, note=28, velocity=64, time=0),\n",
      "    Message('note_off', channel=9, note=28, velocity=64, time=0),\n",
      "    Message('note_off', channel=9, note=28, velocity=64, time=0),\n",
      "    Message('note_off', channel=9, note=28, velocity=64, time=0),\n",
      "    Message('note_off', channel=9, note=28, velocity=64, time=0),\n",
      "    Message('note_off', channel=9, note=28, velocity=64, time=0),\n",
      "    Message('note_off', channel=9, note=28, velocity=64, time=0),\n",
      "    Message('note_off', channel=9, note=40, velocity=64, time=0),\n",
      "    Message('note_off', channel=9, note=40, velocity=64, time=0),\n",
      "    Message('note_off', channel=9, note=40, velocity=64, time=0),\n",
      "    Message('note_off', channel=9, note=40, velocity=64, time=0),\n",
      "    Message('note_off', channel=9, note=40, velocity=64, time=0),\n",
      "    Message('note_off', channel=9, note=40, velocity=64, time=0),\n",
      "    Message('note_off', channel=9, note=40, velocity=64, time=0),\n",
      "    Message('note_off', channel=9, note=40, velocity=64, time=0),\n",
      "    Message('note_off', channel=9, note=39, velocity=64, time=0),\n",
      "    Message('note_off', channel=9, note=39, velocity=64, time=0),\n",
      "    Message('note_off', channel=9, note=39, velocity=64, time=0),\n",
      "    Message('note_off', channel=9, note=39, velocity=64, time=0),\n",
      "    Message('note_off', channel=9, note=39, velocity=64, time=0),\n",
      "    Message('note_off', channel=9, note=39, velocity=64, time=0),\n",
      "    Message('note_off', channel=9, note=39, velocity=64, time=0),\n",
      "    Message('note_off', channel=9, note=39, velocity=64, time=0),\n",
      "    MetaMessage('end_of_track', time=0)]),\n",
      "  MidiTrack([\n",
      "    MetaMessage('track_name', name='Rep', time=0),\n",
      "    Message('control_change', channel=14, control=7, value=80, time=0),\n",
      "    Message('control_change', channel=14, control=10, value=15, time=0),\n",
      "    Message('control_change', channel=14, control=91, value=60, time=0),\n",
      "    Message('control_change', channel=14, control=93, value=0, time=0),\n",
      "    Message('note_on', channel=14, note=61, velocity=90, time=0),\n",
      "    Message('note_on', channel=14, note=61, velocity=0, time=0),\n",
      "    Message('note_on', channel=14, note=61, velocity=90, time=0),\n",
      "    Message('note_on', channel=14, note=61, velocity=0, time=0),\n",
      "    Message('note_on', channel=14, note=61, velocity=90, time=0),\n",
      "    Message('note_on', channel=14, note=61, velocity=0, time=0),\n",
      "    Message('note_on', channel=14, note=61, velocity=90, time=0),\n",
      "    Message('note_on', channel=14, note=61, velocity=0, time=0),\n",
      "    Message('note_on', channel=14, note=61, velocity=90, time=0),\n",
      "    Message('note_on', channel=14, note=61, velocity=0, time=0),\n",
      "    Message('note_on', channel=14, note=61, velocity=90, time=0),\n",
      "    Message('note_on', channel=14, note=61, velocity=0, time=0),\n",
      "    Message('note_on', channel=14, note=61, velocity=90, time=0),\n",
      "    Message('note_on', channel=14, note=61, velocity=0, time=0),\n",
      "    Message('note_on', channel=14, note=61, velocity=90, time=0),\n",
      "    Message('note_on', channel=14, note=61, velocity=0, time=0),\n",
      "    Message('note_on', channel=14, note=61, velocity=90, time=0),\n",
      "    Message('note_on', channel=14, note=61, velocity=0, time=0),\n",
      "    Message('note_on', channel=14, note=61, velocity=90, time=0),\n",
      "    Message('note_on', channel=14, note=61, velocity=0, time=0),\n",
      "    Message('note_on', channel=14, note=61, velocity=90, time=0),\n",
      "    Message('note_on', channel=14, note=61, velocity=90, time=40),\n",
      "    Message('note_on', channel=14, note=61, velocity=0, time=1),\n",
      "    Message('note_on', channel=14, note=61, velocity=90, time=29),\n",
      "    Message('note_on', channel=14, note=61, velocity=0, time=1),\n",
      "    Message('note_on', channel=14, note=61, velocity=90, time=29),\n",
      "    Message('note_on', channel=14, note=61, velocity=0, time=1),\n",
      "    Message('note_on', channel=14, note=61, velocity=90, time=29),\n",
      "    Message('note_on', channel=14, note=61, velocity=0, time=1),\n",
      "    Message('note_on', channel=14, note=61, velocity=90, time=29),\n",
      "    Message('note_on', channel=14, note=61, velocity=0, time=1),\n",
      "    Message('note_on', channel=14, note=61, velocity=90, time=29),\n",
      "    Message('note_on', channel=14, note=61, velocity=0, time=1),\n",
      "    Message('note_on', channel=14, note=61, velocity=90, time=29),\n",
      "    Message('note_on', channel=14, note=61, velocity=0, time=1),\n",
      "    Message('note_on', channel=14, note=61, velocity=90, time=29),\n",
      "    Message('note_on', channel=14, note=61, velocity=0, time=1),\n",
      "    Message('note_on', channel=14, note=61, velocity=90, time=149),\n",
      "    Message('note_on', channel=14, note=61, velocity=0, time=1),\n",
      "    Message('note_on', channel=14, note=61, velocity=90, time=59),\n",
      "    Message('note_on', channel=14, note=61, velocity=0, time=1),\n",
      "    Message('note_on', channel=14, note=61, velocity=90, time=29),\n",
      "    Message('note_on', channel=14, note=61, velocity=0, time=1),\n",
      "    Message('note_on', channel=14, note=61, velocity=90, time=29),\n",
      "    Message('note_on', channel=14, note=61, velocity=0, time=1),\n",
      "    Message('note_on', channel=14, note=61, velocity=90, time=59),\n",
      "    Message('note_on', channel=14, note=61, velocity=0, time=1),\n",
      "    Message('note_on', channel=14, note=61, velocity=90, time=29),\n",
      "    Message('note_on', channel=14, note=61, velocity=0, time=1),\n",
      "    Message('note_on', channel=14, note=61, velocity=90, time=59),\n",
      "    Message('note_on', channel=14, note=61, velocity=0, time=1),\n",
      "    Message('note_on', channel=14, note=61, velocity=90, time=149),\n",
      "    Message('note_on', channel=14, note=61, velocity=0, time=1),\n",
      "    Message('note_on', channel=14, note=61, velocity=90, time=59),\n",
      "    Message('note_on', channel=14, note=61, velocity=0, time=1),\n",
      "    Message('note_on', channel=14, note=61, velocity=90, time=59),\n",
      "    Message('note_on', channel=14, note=61, velocity=0, time=1),\n",
      "    Message('note_on', channel=14, note=61, velocity=90, time=59),\n",
      "    Message('note_on', channel=14, note=61, velocity=0, time=1),\n",
      "    Message('note_on', channel=14, note=61, velocity=90, time=29),\n",
      "    Message('note_on', channel=14, note=61, velocity=0, time=1),\n",
      "    Message('note_on', channel=14, note=61, velocity=90, time=29),\n",
      "    Message('note_on', channel=14, note=61, velocity=0, time=1),\n",
      "    Message('note_on', channel=14, note=61, velocity=90, time=59),\n",
      "    Message('note_on', channel=14, note=61, velocity=0, time=1),\n",
      "    Message('note_on', channel=14, note=61, velocity=90, time=59),\n",
      "    Message('note_on', channel=14, note=61, velocity=0, time=1),\n",
      "    Message('note_on', channel=14, note=61, velocity=90, time=119),\n",
      "    Message('note_on', channel=14, note=61, velocity=0, time=1),\n",
      "    Message('note_on', channel=14, note=61, velocity=90, time=59),\n",
      "    Message('note_on', channel=14, note=61, velocity=0, time=1),\n",
      "    Message('note_on', channel=14, note=61, velocity=90, time=29),\n",
      "    Message('note_on', channel=14, note=61, velocity=0, time=1),\n",
      "    Message('note_on', channel=14, note=61, velocity=90, time=29),\n",
      "    Message('note_on', channel=14, note=61, velocity=0, time=1),\n",
      "    Message('note_on', channel=14, note=61, velocity=90, time=59),\n",
      "    Message('note_on', channel=14, note=61, velocity=0, time=1),\n",
      "    Message('note_on', channel=14, note=61, velocity=90, time=29),\n",
      "    Message('note_on', channel=14, note=61, velocity=0, time=1),\n",
      "    Message('note_on', channel=14, note=61, velocity=90, time=29),\n",
      "    Message('note_on', channel=14, note=61, velocity=0, time=1),\n",
      "    Message('note_on', channel=14, note=61, velocity=90, time=29),\n",
      "    Message('note_on', channel=14, note=61, velocity=0, time=1),\n",
      "    Message('note_on', channel=14, note=61, velocity=90, time=29),\n",
      "    Message('note_on', channel=14, note=61, velocity=0, time=1),\n",
      "    Message('note_on', channel=14, note=61, velocity=90, time=179),\n",
      "    Message('note_on', channel=14, note=61, velocity=0, time=1),\n",
      "    Message('note_on', channel=14, note=61, velocity=90, time=29),\n",
      "    Message('note_on', channel=14, note=61, velocity=0, time=1),\n",
      "    Message('note_on', channel=14, note=61, velocity=90, time=29),\n",
      "    Message('note_on', channel=14, note=61, velocity=0, time=1),\n",
      "    Message('note_on', channel=14, note=61, velocity=90, time=59),\n",
      "    Message('note_on', channel=14, note=61, velocity=0, time=1),\n",
      "    Message('note_on', channel=14, note=61, velocity=90, time=59),\n",
      "    Message('note_on', channel=14, note=61, velocity=0, time=1),\n",
      "    Message('note_on', channel=14, note=61, velocity=90, time=29),\n",
      "    Message('note_on', channel=14, note=61, velocity=0, time=1),\n",
      "    Message('note_on', channel=14, note=61, velocity=90, time=29),\n",
      "    Message('note_on', channel=14, note=61, velocity=0, time=1),\n",
      "    Message('note_on', channel=14, note=61, velocity=90, time=29),\n",
      "    Message('note_on', channel=14, note=61, velocity=0, time=1),\n",
      "    Message('note_on', channel=14, note=61, velocity=90, time=29),\n",
      "    Message('note_on', channel=14, note=61, velocity=0, time=1),\n",
      "    Message('note_off', channel=14, note=61, velocity=64, time=118),\n",
      "    Message('note_off', channel=14, note=61, velocity=64, time=0),\n",
      "    Message('note_off', channel=14, note=61, velocity=64, time=0),\n",
      "    Message('note_off', channel=14, note=61, velocity=64, time=0),\n",
      "    Message('note_off', channel=14, note=61, velocity=64, time=0),\n",
      "    Message('note_off', channel=14, note=61, velocity=64, time=0),\n",
      "    Message('note_off', channel=14, note=61, velocity=64, time=0),\n",
      "    Message('note_off', channel=14, note=61, velocity=64, time=0),\n",
      "    Message('note_off', channel=14, note=61, velocity=64, time=0),\n",
      "    Message('note_off', channel=14, note=61, velocity=64, time=0),\n",
      "    Message('note_off', channel=14, note=61, velocity=64, time=0),\n",
      "    Message('note_off', channel=14, note=61, velocity=64, time=0),\n",
      "    Message('note_off', channel=14, note=61, velocity=64, time=0),\n",
      "    Message('note_off', channel=14, note=61, velocity=64, time=0),\n",
      "    Message('note_off', channel=14, note=61, velocity=64, time=0),\n",
      "    Message('note_off', channel=14, note=61, velocity=64, time=0),\n",
      "    Message('note_off', channel=14, note=61, velocity=64, time=0),\n",
      "    Message('note_off', channel=14, note=61, velocity=64, time=0),\n",
      "    Message('note_off', channel=14, note=61, velocity=64, time=0),\n",
      "    Message('note_off', channel=14, note=61, velocity=64, time=0),\n",
      "    Message('note_off', channel=14, note=61, velocity=64, time=0),\n",
      "    Message('note_off', channel=14, note=61, velocity=64, time=0),\n",
      "    Message('note_off', channel=14, note=61, velocity=64, time=0),\n",
      "    Message('note_off', channel=14, note=61, velocity=64, time=0),\n",
      "    Message('note_off', channel=14, note=61, velocity=64, time=0),\n",
      "    Message('note_off', channel=14, note=61, velocity=64, time=0),\n",
      "    Message('note_off', channel=14, note=61, velocity=64, time=0),\n",
      "    Message('note_off', channel=14, note=61, velocity=64, time=0),\n",
      "    Message('note_off', channel=14, note=61, velocity=64, time=0),\n",
      "    Message('note_off', channel=14, note=61, velocity=64, time=0),\n",
      "    Message('note_off', channel=14, note=61, velocity=64, time=0),\n",
      "    Message('note_off', channel=14, note=61, velocity=64, time=0),\n",
      "    Message('note_off', channel=14, note=61, velocity=64, time=0),\n",
      "    Message('note_off', channel=14, note=61, velocity=64, time=0),\n",
      "    Message('note_off', channel=14, note=61, velocity=64, time=0),\n",
      "    Message('note_off', channel=14, note=61, velocity=64, time=0),\n",
      "    Message('note_off', channel=14, note=61, velocity=64, time=0),\n",
      "    Message('note_off', channel=14, note=61, velocity=64, time=0),\n",
      "    Message('note_off', channel=14, note=61, velocity=64, time=0),\n",
      "    Message('note_off', channel=14, note=61, velocity=64, time=0),\n",
      "    Message('note_off', channel=14, note=61, velocity=64, time=0),\n",
      "    Message('note_off', channel=14, note=61, velocity=64, time=0),\n",
      "    Message('note_off', channel=14, note=61, velocity=64, time=0),\n",
      "    Message('note_off', channel=14, note=61, velocity=64, time=0),\n",
      "    Message('note_off', channel=14, note=61, velocity=64, time=0),\n",
      "    Message('note_off', channel=14, note=61, velocity=64, time=0),\n",
      "    Message('note_off', channel=14, note=61, velocity=64, time=0),\n",
      "    Message('note_off', channel=14, note=61, velocity=64, time=0),\n",
      "    Message('note_off', channel=14, note=61, velocity=64, time=0),\n",
      "    Message('note_off', channel=14, note=61, velocity=64, time=0),\n",
      "    Message('note_off', channel=14, note=61, velocity=64, time=0),\n",
      "    Message('note_off', channel=14, note=61, velocity=64, time=0),\n",
      "    Message('note_off', channel=14, note=61, velocity=64, time=0),\n",
      "    Message('note_off', channel=14, note=61, velocity=64, time=0),\n",
      "    Message('note_off', channel=14, note=61, velocity=64, time=0),\n",
      "    Message('note_off', channel=14, note=61, velocity=64, time=0),\n",
      "    Message('note_off', channel=14, note=61, velocity=64, time=0),\n",
      "    Message('note_off', channel=14, note=61, velocity=64, time=0),\n",
      "    Message('note_off', channel=14, note=61, velocity=64, time=0),\n",
      "    Message('note_off', channel=14, note=61, velocity=64, time=0),\n",
      "    Message('note_off', channel=14, note=61, velocity=64, time=0),\n",
      "    Message('note_off', channel=14, note=61, velocity=64, time=0),\n",
      "    Message('note_off', channel=14, note=61, velocity=64, time=0),\n",
      "    Message('note_off', channel=14, note=61, velocity=64, time=0),\n",
      "    Message('note_off', channel=14, note=61, velocity=64, time=0),\n",
      "    Message('note_off', channel=14, note=61, velocity=64, time=0),\n",
      "    Message('note_off', channel=14, note=61, velocity=64, time=0),\n",
      "    Message('note_off', channel=14, note=61, velocity=64, time=0),\n",
      "    Message('note_off', channel=14, note=61, velocity=64, time=0),\n",
      "    Message('note_off', channel=14, note=61, velocity=64, time=0),\n",
      "    Message('note_off', channel=14, note=61, velocity=64, time=0),\n",
      "    Message('note_off', channel=14, note=61, velocity=64, time=0),\n",
      "    Message('note_off', channel=14, note=61, velocity=64, time=0),\n",
      "    Message('note_off', channel=14, note=61, velocity=64, time=0),\n",
      "    Message('note_off', channel=14, note=61, velocity=64, time=0),\n",
      "    Message('note_off', channel=14, note=61, velocity=64, time=0),\n",
      "    Message('note_off', channel=14, note=61, velocity=64, time=0),\n",
      "    Message('note_off', channel=14, note=61, velocity=64, time=0),\n",
      "    Message('note_off', channel=14, note=61, velocity=64, time=0),\n",
      "    Message('note_off', channel=14, note=61, velocity=64, time=0),\n",
      "    Message('note_off', channel=14, note=61, velocity=64, time=0),\n",
      "    Message('note_off', channel=14, note=61, velocity=64, time=0),\n",
      "    Message('note_off', channel=14, note=61, velocity=64, time=0),\n",
      "    Message('note_off', channel=14, note=61, velocity=64, time=0),\n",
      "    Message('note_off', channel=14, note=61, velocity=64, time=0),\n",
      "    Message('note_off', channel=14, note=61, velocity=64, time=0),\n",
      "    Message('note_off', channel=14, note=61, velocity=64, time=0),\n",
      "    Message('note_off', channel=14, note=61, velocity=64, time=0),\n",
      "    Message('note_off', channel=14, note=61, velocity=64, time=0),\n",
      "    Message('note_off', channel=14, note=61, velocity=64, time=0),\n",
      "    Message('note_off', channel=14, note=61, velocity=64, time=0),\n",
      "    Message('note_off', channel=14, note=61, velocity=64, time=0),\n",
      "    Message('note_off', channel=14, note=61, velocity=64, time=0),\n",
      "    Message('note_off', channel=14, note=61, velocity=64, time=0),\n",
      "    Message('note_off', channel=14, note=61, velocity=64, time=0),\n",
      "    Message('note_off', channel=14, note=61, velocity=64, time=0),\n",
      "    Message('note_off', channel=14, note=61, velocity=64, time=0),\n",
      "    Message('note_off', channel=14, note=61, velocity=64, time=0),\n",
      "    Message('note_off', channel=14, note=61, velocity=64, time=0),\n",
      "    Message('note_off', channel=14, note=61, velocity=64, time=0),\n",
      "    Message('note_off', channel=14, note=61, velocity=64, time=0),\n",
      "    Message('note_off', channel=14, note=61, velocity=64, time=0),\n",
      "    Message('note_off', channel=14, note=61, velocity=64, time=0),\n",
      "    MetaMessage('end_of_track', time=0)])\n",
      "]) 9.995462875000015\n"
     ]
    }
   ],
   "source": [
    "# clip midi\n",
    "output_mid = midi_clip.midi_clip(mid, 5., 15.)\n",
    "# you can get total duration(second) of midi\n",
    "duration = midi_clip.midi_duration(output_mid)\n",
    "# if you see by print\n",
    "print(output_mid, duration)\n",
    "# if you save midi clip\n",
    "#output_mid.save('output.mid')"
   ]
  },
  {
   "cell_type": "code",
   "execution_count": null,
   "id": "30255b1f",
   "metadata": {},
   "outputs": [],
   "source": []
  },
  {
   "cell_type": "code",
   "execution_count": null,
   "id": "034eb286",
   "metadata": {},
   "outputs": [],
   "source": []
  }
 ],
 "metadata": {
  "kernelspec": {
   "display_name": "Python 3 (ipykernel)",
   "language": "python",
   "name": "python3"
  },
  "language_info": {
   "codemirror_mode": {
    "name": "ipython",
    "version": 3
   },
   "file_extension": ".py",
   "mimetype": "text/x-python",
   "name": "python",
   "nbconvert_exporter": "python",
   "pygments_lexer": "ipython3",
   "version": "3.11.3"
  }
 },
 "nbformat": 4,
 "nbformat_minor": 5
}
